<svg version="1.1" xmlns="http://www.w3.org/2000/svg" xmlns:xlink="http://www.w3.org/1999/xlink" width="400" height="400" viewBox="0, 0, 400,400">
    <path d="M356.281 1.599 C 355.176 1.868,351.106 2.816,347.236 3.706 C 329.587 7.768,303.695 19.996,278.894 35.983 C 274.472 38.834,268.909 42.362,266.532 43.824 L 262.211 46.481 252.462 43.359 C 215.857 31.634,182.284 31.540,148.189 43.067 C 138.489 46.347,120.041 54.602,117.588 56.761 C 116.759 57.490,114.292 59.082,112.106 60.298 C 99.740 67.175,79.525 85.694,68.769 100.000 C 34.660 145.363,25.579 201.121,43.734 253.719 C 46.954 263.051,47.158 261.942,40.348 272.116 C -3.732 337.969,-10.743 385.990,22.111 397.022 C 43.307 404.140,87.228 388.333,130.278 358.094 C 137.511 353.014,137.020 353.070,146.281 356.266 C 275.579 400.894,398.984 278.457,356.637 147.561 L 353.491 137.836 356.166 133.491 C 357.638 131.101,361.320 125.302,364.350 120.603 C 403.326 60.151,409.326 16.666,380.448 3.930 C 375.561 1.775,361.246 0.394,356.281 1.599 M372.773 23.571 C 381.978 28.331,378.827 49.301,364.611 77.889 C 352.283 102.679,340.704 120.036,340.704 113.724 C 340.704 106.360,301.131 66.277,287.688 60.025 C 284.179 58.394,284.917 57.086,291.929 52.508 C 312.176 39.290,335.614 28.201,353.769 23.251 C 359.260 21.754,369.595 21.928,372.773 23.571 M228.677 58.659 C 264.725 65.560,299.473 88.856,320.317 120.101 C 324.548 126.442,328.643 133.996,328.643 135.458 C 328.643 137.067,307.600 164.505,296.046 177.961 C 294.352 179.935,291.847 182.874,290.481 184.493 C 274.207 203.785,265.325 213.315,265.328 211.482 C 265.329 210.971,266.007 206.709,266.834 202.010 C 269.304 187.988,266.623 180.905,258.845 180.905 C 250.010 180.905,248.471 184.285,241.691 218.589 C 233.176 261.672,232.258 260.818,277.354 251.765 C 309.931 245.225,312.466 244.055,312.531 235.516 C 312.557 232.084,312.023 230.880,309.553 228.802 C 305.018 224.986,303.397 224.821,292.534 227.072 C 276.232 230.450,275.623 232.636,298.025 207.368 C 312.717 190.796,326.538 174.107,333.050 165.075 C 338.703 157.235,339.339 158.080,342.299 177.387 C 358.762 284.749,256.782 370.908,153.756 336.679 C 120.841 325.744,87.520 297.913,73.613 269.741 L 71.079 264.609 74.987 259.024 C 90.472 236.895,134.674 185.036,134.673 188.997 C 134.673 189.798,133.995 193.997,133.166 198.330 C 130.599 211.744,133.427 219.095,141.155 219.095 C 150.001 219.095,151.561 215.670,158.319 181.409 C 166.814 138.341,167.723 139.191,122.867 148.243 C 107.806 151.282,95.272 153.769,95.013 153.769 C 92.519 153.769,87.437 160.431,87.437 163.700 C 87.437 174.258,100.678 177.273,118.342 170.736 C 121.967 169.394,121.042 171.309,114.783 178.104 C 98.385 195.904,75.389 223.221,66.950 234.925 C 61.524 242.450,61.631 242.550,58.120 226.633 C 55.806 216.148,56.368 181.550,59.050 169.347 C 62.516 153.575,76.414 121.248,81.303 117.588 C 81.672 117.312,83.391 115.126,85.124 112.731 C 91.304 104.186,103.972 91.850,116.596 82.081 C 143.918 60.938,190.132 51.281,228.677 58.659 M60.031 287.688 C 66.416 301.343,94.447 329.440,112.041 339.820 L 115.861 342.074 112.956 344.410 C 106.228 349.819,77.801 365.260,63.451 371.300 C 48.771 377.479,31.040 379.786,26.500 376.108 C 15.553 367.241,25.786 334.017,52.496 291.709 C 56.748 284.974,58.360 284.114,60.031 287.688 " stroke="none" fill="#1F7DD6" fill-rule="evenodd"/>
</svg>